<svg xmlns="http://www.w3.org/2000/svg" xml:space="preserve" viewBox="0 0 1024 1024"><path fill="#7385f0" d="M395.887 773.015c-.309-.045-.555-.194-.84-1.008-3.106-3.03-6.108-5.498-9.111-7.967 0 0 .063-.033.034-.354-3.759-3.68-7.489-7.04-11.22-10.398 0 0 .004-.076-.012-.352-.324-.437-.632-.597-.94-.757 0 0 .144-.17.035-.343a5.5 5.5 0 0 0-1.036-.655s-.011.071.023-.303c-1.623-1.538-3.28-2.702-4.938-3.866-.305-.064-.546-.224-.895-.94-.459-.66-.744-.861-1.03-1.063 0 0 .046-.01.025-.305-.424-.702-.828-1.11-1.231-1.517 0 0 .003.072.05-.289-5.587-6.72-11.19-13.11-16.903-19.4-.689-.76-1.968-.982-2.974-1.453 0 0 .064-.046.046-.33-.419-.704-.82-1.124-1.221-1.543 0 0 .047.075.078-.287-1.281-1.523-2.592-2.682-3.903-3.842 0 0 .066-.043.066-.38-.543-1.487-.92-2.76-1.658-3.77a4514 4514 0 0 0-21.63-29.381c-3.588-4.83-7.288-9.575-10.936-14.359 0 0 .173.002.141-.345-4.233-8.205-8.172-16.218-12.688-23.89-11.868-20.166-20.927-41.605-29.184-63.41-4.203-11.099-8.044-22.336-12.045-33.923-.081-1.57.013-2.774-.277-3.878-3.428-13.051-7.244-26.011-10.289-39.15-2.909-12.554-5.184-25.263-7.452-37.955-1.858-10.4-3.381-20.862-4.892-31.32-1.157-8.011-2.287-16.039-3.024-24.096-.92-10.055-1.459-20.146-2.101-30.225-1.338-20.986-2.794-41.967-3.876-62.967-.453-8.805-.082-17.652-.081-26.48 0-6.963 1.061-8.995 7.455-11.122 17.885-5.95 35.78-11.896 53.826-17.329 12.13-3.652 24.502-6.513 36.805-9.57 9.15-2.274 18.3-4.622 27.558-6.355 16.058-3.005 32.159-5.833 48.316-8.231 17.637-2.617 35.359-4.66 53.472-6.942 15.467-.983 30.494-2.506 45.548-2.846 21.738-.491 43.496-.202 65.244-.076 6.293.036 12.603.438 18.87 1.046 15.632 1.518 31.28 2.976 46.855 4.974 15.394 1.975 30.707 4.583 46.424 6.926 1.106.02 1.844.029 2.702.246.327.474.593.647 1.345.739 6.46 1.026 12.495 2.042 18.712 3.293.742.392 1.301.55 2.232.717 1.115.018 1.858.026 2.72.247.322.481.587.659 1.293.762 2.456.066 4.534.116 6.611.165.465.057.93.114 1.841.64 15.722 4.683 31.128 8.48 46.24 13.213 19.085 5.977 37.96 12.632 56.856 19.197 3.922 1.362 6.354 3.9 6.203 8.953-.632 21.116-.795 42.245-1.134 63.37q-.014.999-.1 1.995c-1.291 14.835-2.486 29.679-3.914 44.5-1.3 13.497-2.558 27.01-4.39 40.439-1.384 10.136-3.618 20.157-5.523 30.22-2.762 14.59-4.936 29.328-8.52 43.714-4.217 16.93-8.816 33.865-14.801 50.23-7.937 21.701-16.256 43.408-26.493 64.081-9.754 19.7-22.2 38.067-33.41 57.05-1.154 1.952-1.962 4.108-3.14 6.322a4.4 4.4 0 0 0-.576 1.1s-.066-.07-.278 0c-.365.383-.52.693-.673 1.003 0 0 .03-.115-.295 0-.778 1.08-1.23 2.046-1.681 3.012 0 0-.05-.212-.373-.136-.84.436-1.472.701-1.858 1.169-6.796 8.24-13.65 16.436-20.295 24.797-2.777 3.493-5.1 7.347-7.629 11.037 0 0-.036-.064-.356-.035-1.265.667-2.328 1.18-3.137 1.958-9.933 9.548-19.554 19.442-29.81 28.628-10.956 9.815-22.51 18.962-33.787 28.42-3.621 3.035-7.194 6.128-10.79 9.195 0 0 .053-.136-.319-.12-1.832.754-3.399 1.335-4.734 2.253-24.377 16.752-49.675 31.94-76.059 45.339-3.995 2.029-7.22 1.287-10.75-.543-4.068-2.108-8.2-4.094-12.608-6.292-5.932-3.318-11.52-6.55-17.206-9.6-2.809-1.507-5.8-2.674-8.708-3.995 0 0-.028-.126-.055-.423-3.332-2.059-6.637-3.82-9.942-5.581 0 0-.026-.112-.056-.416-8.319-5.984-16.59-11.69-24.927-17.299-.736-.495-1.897-.359-2.86-.516 0 0 .06-.033.017-.347-.758-.689-1.473-1.064-2.188-1.438 0 0 .007-.138-.028-.423-2.96-2.12-5.883-3.954-8.806-5.788 0 0 .065-.033.032-.357-2.697-2.099-5.362-3.874-8.027-5.648 0 0 .06-.032.03-.356-3.362-2.765-6.694-5.206-10.026-7.648 0 0 .057-.028.025-.361-1.685-1.444-3.337-2.556-4.99-3.667 0 0 .023-.007-.004-.348-1.422-1.36-2.816-2.378-4.211-3.396 0 0 .023-.088-.044-.37-.655-.478-1.243-.676-1.832-.875M442 769.987s.042-.064.093.628c.716.368 1.432.736 2.18 1.21 0 0-.072-.085.032.613 4.971 3.102 9.942 6.204 14.933 9.475 0 0-.056-.16.065.543.896.96 1.629 2.196 2.714 2.836 7.066 4.165 14.125 8.356 21.362 12.209 3.393 1.806 7.176 2.878 10.633 4.287 0 0 .15-.03.296.67 6.074 3.203 12.001 6.746 18.287 9.457 2.884 1.244 7.1 2.19 9.645.997 26.103-12.231 51.006-26.631 74.756-42.983 2.497-1.72 4.529-4.117 6.82-6.245 0 0-.062-.008.66.158 2.43-2.039 4.862-4.078 7.32-6.16 0 0-.05-.01.675.159 4.492-3.976 8.984-7.952 13.532-11.858 0 0-.08-.04.664.004 6.37-3.303 11.9-7.518 15.334-13.997 0 0-.07-.037.67 0 .915-.323 2.078-.393 2.706-1.009 6.537-6.409 13.034-12.861 19.408-19.433.791-.816.8-2.391 1.207-3.548 0 0-.063-.04.643-.062 1.683-2.064 3.366-4.128 5.118-6.195 0 0-.007.068.607-.094.2-.57.4-1.142.631-1.647 0 0-.06-.042.645-.064 3.546-3.814 7.324-7.444 10.567-11.502 2.585-3.234 4.517-6.99 6.778-10.433 0 0-.068-.058.652-.078.68-1.057 1.361-2.114 2.062-3.119 0 0 .045-.033.744-.112.973-.89 2.165-1.632 2.883-2.694 6.015-8.906 12.213-17.706 17.8-26.877 3.484-5.72 6.007-12.027 9.267-18.256.064-.096.205-.249.181-.281-.125-.171-.29-.312-.434-.495 0 0 .002-.034.096-.477.122-.295.328-.508 1.132-.838.162-.315.324-.631.386-.932 0 0-.02-.099.723-.01.53-.552 1.266-1.01 1.56-1.666 7.272-16.258 15.012-32.332 21.572-48.874a411 411 0 0 0 14.272-42.712c5.027-18.323 9.193-36.9 13.167-55.488 2.796-13.075 5.008-26.302 6.83-39.55 1.824-13.26 3.006-26.617 4.167-39.958 1.479-16.978 2.682-33.981 3.949-50.978.7-9.41 1.59-18.821 1.805-28.246.117-5.152 2.176-10.988-2.909-15.226 0 0-.058.103-.206-.623-1.17-.834-2.23-1.953-3.527-2.453-6.768-2.61-13.515-5.322-20.426-7.5-7.82-2.463-15.808-4.398-24.198-7.114-13.66-3.785-27.258-7.82-41.001-11.274-10.56-2.654-21.28-4.687-31.97-6.791-9.722-1.914-19.47-3.725-29.259-5.25-6.523-1.016-13.147-1.367-19.708-2.168-7.207-.88-14.392-1.934-22.421-2.946-1.39-.004-2.78-.007-4.81-.292a49 49 0 0 0-4.293-.702c-9.241-.67-18.474-1.751-27.724-1.923-17.062-.317-34.135-.232-51.201-.065-13.28.13-26.56.551-39.835 1.018-5.948.21-11.897.698-17.819 1.32-10.51 1.106-21.006 2.354-31.494 3.651-6.549.81-13.097 1.677-19.603 2.773-9.585 1.615-19.173 3.265-28.686 5.255-9.966 2.085-19.844 4.59-30.48 6.934-.774.452-1.547.905-2.555 1.386 0 0-.113-.208-1.003-.299-.89-.014-1.78-.028-3.118.15-.276.19-.477.44-1.394.753-2.05.35-4.1.699-6.623 1.304-.123.327-.247.653-.454.95 0 0 .013-.089-.855-.202-5.494 1.071-11.097 1.755-16.46 3.283a2663 2663 0 0 0-54.03 16.02c-3.358 1.034-6.346 3.266-9.612 4.899 0 0 .11-.038-.677.166-.481 1.662-1.437 3.342-1.372 4.981a8835 8835 0 0 0 2.936 67.09c.336 7.11.72 14.232 1.482 21.306.954 8.864 2.273 17.69 3.517 26.521 2.234 15.86 4.237 31.758 6.9 47.546 1.864 11.05 4.436 21.997 7.103 32.89 3.887 15.871 7.397 31.895 12.449 47.405 5.213 16 12.036 31.48 18.285 47.136.692 1.734 2.234 3.13 3.293 4.708 0 0 .045-.08-.006.692 2.748 6.252 5.311 12.595 8.32 18.718 1.501 3.055 3.818 5.708 5.69 8.61 0 0 .034-.094-.014.647 1.362 2.104 2.725 4.209 4 6.334 0 0 .047-.076.001.666 1.362 2.104 2.723 4.208 3.998 6.334 0 0 .048-.075.002.673 1.351 1.768 2.703 3.536 3.987 5.347 0 0 .036-.072-.002.69 2.743 4.047 5.487 8.094 8.06 12.104 0 0 .174-.013.052.683a90 90 0 0 1 2.023 2.259s.127.029.011.723c.644.496 1.289.992 1.863 1.544 0 0 .037-.081-.006.668 2.746 3.71 5.49 7.42 8.238 11.094 0 0 .035.002-.11.73 3.321 3.812 6.641 7.624 9.893 11.51 0 0 .034-.095-.016.65 2.02 2.1 4.04 4.198 5.992 6.345 0 0 .038-.073-.002.668 2.685 2.766 5.369 5.532 7.995 8.332 0 0 .032-.06.002.685 1.368 1.414 2.735 2.828 4.047 4.303 0 0-.01-.082.176.409.287.188.573.375.778.56 0 0 .058-.057.07.65 6.706 6.963 13.384 13.955 20.173 20.837.548.555 1.862.356 2.749.545 0 0 .046-.066.064.638.287.581.428 1.339.884 1.718 9.591 7.98 19.196 15.943 28.879 23.81.781.635 2.147.55 3.173.834 0 0 .041-.064.064.648 3.04 2.064 6.079 4.128 9.059 6.276 0 0-.028-.1.212.486.578.185 1.155.37 1.664.588"/><path fill="#828ed4" d="M715.91 690.93c.969-2.062 1.777-4.218 2.93-6.17 11.212-18.983 23.657-37.35 33.411-57.05 10.237-20.673 18.556-42.38 26.493-64.081 5.985-16.365 10.584-33.3 14.802-50.23 3.583-14.386 5.757-29.124 8.519-43.714 1.905-10.063 4.139-20.084 5.522-30.22 1.833-13.43 3.091-26.942 4.391-40.439 1.428-14.821 2.623-29.665 3.915-44.5q.084-.996.099-1.995c.339-21.125.502-42.254 1.134-63.37.151-5.053-2.281-7.59-6.203-8.953-18.896-6.565-37.771-13.22-56.856-19.197-15.112-4.733-30.518-8.53-45.934-13.035 13.565 3.1 27.436 5.945 40.939 10.014 20.227 6.095 40.23 12.95 60.26 19.684 9.487 3.19 9.516 3.597 9.546 13.572.2 65.076-4.63 129.732-17.086 193.665-9.102 46.722-22.833 92.023-43.444 135.103-11.81 24.687-25.267 48.365-41.812 70.713-.385.239-.626.202-.626.202M447.001 230.953c-17.684 2.293-35.406 4.337-53.043 6.954-16.157 2.398-32.258 5.226-48.316 8.231-9.258 1.733-18.409 4.08-27.558 6.354-12.303 3.058-24.675 5.919-36.805 9.571-18.046 5.433-35.94 11.38-53.826 17.33-6.394 2.126-7.455 4.158-7.455 11.121 0 8.828-.372 17.675.081 26.48 1.082 21 2.538 41.98 3.876 62.967.642 10.08 1.181 20.17 2.101 30.225.737 8.057 1.867 16.085 3.024 24.097 1.51 10.457 3.034 20.92 4.892 31.319 2.268 12.692 4.543 25.4 7.452 37.955 3.045 13.139 6.86 26.099 10.289 39.15.29 1.104.196 2.308.023 3.88-.428.419-.598.422-.768.425-3.606-13.289-7.634-26.48-10.743-39.884-10.475-45.163-16.631-90.985-19.198-137.242-1.493-26.909-1.987-53.874-2.801-80.818-.213-7.044 1.112-8.455 8.26-11.106a762 762 0 0 1 130.83-35.684c29.438-5.273 59.196-8.765 89.246-12.717.437.689.438 1.04.44 1.392"/><path fill="#828ed4" d="M447.43 230.965c-.43-.363-.431-.715-.435-1.33 13.27-1.269 26.527-2.613 39.818-3.224 59.274-2.724 118.151.932 176.555 11.604 1.965.36 3.913.813 6.248 1.627.384.714.386 1.024.386 1.334-15.348-2.33-30.661-4.938-46.055-6.913-15.576-1.998-31.223-3.456-46.856-4.974-6.266-.608-12.576-1.01-18.87-1.046-21.747-.126-43.505-.415-65.243.076-15.054.34-30.081 1.863-45.548 2.846M250.98 547.41c.158-.401.328-.404.752-.41 4.26 11.172 8.1 22.41 12.303 33.509 8.257 21.804 17.316 43.243 29.184 63.408 4.516 7.673 8.455 15.686 12.606 23.919-4.835-7.328-9.996-14.825-14.338-22.77-16.61-30.39-29.734-62.277-40.094-95.311-.197-.63-.272-1.297-.414-2.345m249.019 294.616c4.104 2.04 8.235 4.025 12.303 6.133 3.53 1.83 6.755 2.572 10.75.543 26.384-13.4 51.682-28.587 76.059-45.339 1.335-.918 2.902-1.499 4.734-2.18-.538.97-1.337 2.042-2.376 2.772-24.625 17.306-50.484 32.543-77.311 46.174-3.9 1.982-7.376 2.38-11.27.152-4.314-2.47-8.823-4.6-13.29-7.22.18-.525.327-.757.401-1.035m104.519-40.816c3.242-3.047 6.815-6.14 10.436-9.176 11.278-9.457 22.83-18.604 33.787-28.419 10.256-9.186 19.877-19.08 29.81-28.628.81-.778 1.872-1.291 3.168-1.938-7.814 8.491-15.451 17.59-24.26 25.36-15.462 13.637-31.628 26.477-47.543 39.597-1.522 1.254-3.355 2.13-5.398 3.203M305.785 668.514c3.63 4.423 7.33 9.168 10.916 13.998a4514 4514 0 0 1 21.63 29.38c.738 1.01 1.116 2.284 1.642 3.806a2628 2628 0 0 1-34.188-47.184m376.56 64.408c2.227-3.548 4.55-7.402 7.327-10.895 6.646-8.36 13.499-16.557 20.295-24.797.386-.468 1.019-.733 1.896-1.065-4.36 6.376-8.886 12.881-13.853 19.03-4.888 6.05-10.223 11.737-15.665 17.727M436.11 804.325c.792-.13 1.953-.267 2.69.228 8.336 5.61 16.607 11.315 24.962 17.343-9.116-5.529-18.299-11.406-27.652-17.57"/><path fill="#828ed4" d="M670.371 240.99c-.37-.324-.371-.634-.383-1.173 11.787 2.153 23.58 4.537 35.686 7.13-1.765.162-3.843.112-6.412-.17-.699-.503-.968-.678-1.298-.759-.744-.008-1.487-.016-2.775-.277-1.11-.406-1.676-.557-2.241-.71-6.035-1.015-12.07-2.031-18.644-3.272-.749-.492-1.02-.661-1.351-.733-.738-.008-1.476-.016-2.582-.037M345.008 722.372c.922.144 2.201.366 2.89 1.125 5.712 6.29 11.316 12.68 16.868 19.402-6.614-6.492-13.144-13.346-19.758-20.527m154.685 119.495c.23.437.083.669-.32.953a736 736 0 0 1-25.478-14.243c2.792 1.016 5.783 2.183 8.592 3.69 5.686 3.05 11.274 6.282 17.206 9.6m-124.88-88.256a167 167 0 0 1 11.14 10.106c-3.686-3.026-7.382-6.404-11.14-10.106m32.277 28.723a118 118 0 0 1 9.863 7.376c-3.229-2.122-6.473-4.599-9.863-7.376m-21.012-17.991a110 110 0 0 1 8.876 7.463c-2.904-2.147-5.82-4.654-8.876-7.463m77.822 58.231a85 85 0 0 1 9.86 5.328c-3.205-1.44-6.474-3.23-9.86-5.328m-38.808-26.236a83 83 0 0 1 8.675 5.554c-2.797-1.52-5.657-3.388-8.675-5.554m-7.99-6.011a70 70 0 0 1 7.846 5.389c-2.551-1.462-5.117-3.28-7.846-5.389m-14.966-12.037a27 27 0 0 1 4.817 3.41c-1.54-.8-3.1-1.961-4.817-3.41m-34.102-30.98a24 24 0 0 1 4.75 3.57c-1.579-.84-3.088-2.055-4.75-3.57m29.808 27.262c1.316.706 2.71 1.725 4.13 3.095-1.333-.692-2.692-1.737-4.13-3.095m-57.839-58.208c1.232.839 2.543 1.998 3.78 3.522-1.284-.825-2.492-2.013-3.78-3.522m372.502-20.277c.144-.856.596-1.821 1.394-2.846-.131.873-.61 1.804-1.394 2.846M433.856 802.543c.627.083 1.342.458 2.085 1.177-.648-.065-1.323-.476-2.085-1.177m-90.106-82.066c.4.114.801.534 1.203 1.273-.4-.11-.802-.54-1.204-1.273m20.998 23.012c.407.105.81.513 1.224 1.236-.403-.101-.815-.518-1.224-1.236M715.7 691.082c.21-.153.451-.116.57-.113-.142.378-.405.754-.906 1.171-.117-.274.005-.59.336-1.058m-319.65 82.196c.426-.064 1.014.134 1.706.639-.446.08-.995-.148-1.707-.639m-23.213-21.82c.27-.117.579.043.94.473-.266.115-.584-.04-.94-.473m1.002.997c.268-.116.576.044.937.474-.264.113-.58-.042-.937-.474m-7.79-7.195q.293-.075.854.608-.292.074-.854-.609m348.394-52.133c-.114-.251.04-.561.453-.95.112.244-.036.567-.453.95"/><path fill="#828ed4" d="M726.1 623.79c2.687-6.676 5.712-13.322 8.808-19.935 22.414-47.875 35.792-98.392 44.211-150.39 5.886-36.356 9.438-72.936 11.235-109.702.56-11.47 1.106-22.943 1.477-34.42.078-2.442-.636-4.909-1.023-7.77 5.162 3.8 3.103 9.637 2.986 14.79-.215 9.424-1.104 18.835-1.805 28.245-1.267 16.997-2.47 34-3.949 50.978-1.161 13.34-2.343 26.697-4.167 39.957-1.822 13.249-4.034 26.476-6.83 39.551-3.974 18.588-8.14 37.165-13.167 55.488a411 411 0 0 1-14.272 42.712c-6.56 16.542-14.3 32.616-21.573 48.874-.293.656-1.03 1.114-1.93 1.621M245.837 301.294c.368 10.207-.165 20.545.422 30.82 1.243 21.762 2.683 43.528 4.732 65.227 6.444 68.277 19.535 135.005 47.442 198.165.667 1.51 1.113 3.118 1.677 5.063-1.133-1.168-2.675-2.564-3.367-4.298-6.249-15.656-13.072-31.136-18.285-47.136-5.052-15.51-8.562-31.534-12.449-47.406-2.667-10.892-5.239-21.84-7.103-32.89-2.663-15.787-4.666-31.686-6.9-47.545-1.244-8.83-2.563-17.657-3.517-26.521-.762-7.074-1.146-14.195-1.482-21.305a8899 8899 0 0 1-2.936-67.09c-.065-1.64.89-3.32 1.766-5.084m334.208-46.308c-20.805-.642-41.613-1.943-62.413-1.8-56.285.383-111.926 6.908-166.883 19.146-1.783.397-3.605.616-6.21.824l-1.596-.192c9.917-2.322 19.795-4.827 29.761-6.912 9.513-1.99 19.1-3.64 28.686-5.255 6.506-1.096 13.054-1.963 19.603-2.773 10.488-1.297 20.984-2.545 31.494-3.65 5.922-.623 11.87-1.112 17.82-1.321 13.273-.467 26.553-.888 39.834-1.018 17.066-.167 34.139-.252 51.2.065 9.25.172 18.484 1.252 28.092 2.165.114.671-.14 1.1-.394 1.53-2.046-.187-4.093-.374-6.865-.67-1.194-.12-1.661-.129-2.129-.139m162.958 29.918c-18.855-4.716-37.545-10.295-56.605-13.94-26.91-5.146-54.093-8.864-81.16-13.189-1.805-.288-3.615-.55-5.83-1.208-.408-.762-.407-1.14-.406-1.517 7.196.979 14.381 2.033 21.588 2.913 6.56.8 13.185 1.152 19.708 2.168 9.788 1.525 19.537 3.336 29.259 5.25 10.69 2.104 21.41 4.137 31.97 6.79 13.743 3.455 27.34 7.49 41.238 11.777.237.503.238.956.238.956M494.234 802.108c6.39 2.607 12.94 5.393 19.284 8.587 3.653 1.84 6.713 1.541 10.318-.235 26.696-13.156 52.41-27.947 76.666-45.23.802-.571 1.712-.992 2.92-1.492-1.898 2.074-3.93 4.471-6.427 6.19-23.75 16.353-48.653 30.753-74.756 42.984-2.546 1.193-6.76.247-9.645-.997-6.286-2.71-12.213-6.254-18.36-9.807M326.656 277.085c-5.882 1.952-12.2 3.842-18.514 5.745-20.387 6.143-40.773 12.29-61.537 18.441 2.78-1.674 5.769-3.906 9.126-4.94a2663 2663 0 0 1 54.03-16.02c5.364-1.528 10.967-2.212 16.895-3.226m367.432 397.649c1.365-2.76 3.066-5.567 4.798-8.356 8.248-13.286 16.505-26.566 25.005-40.084.246-.237.244-.203.209.043-.035.247-.018.715-.018.715-2.954 6.044-5.477 12.35-8.961 18.07-5.587 9.172-11.785 17.972-17.8 26.878-.718 1.062-1.91 1.804-3.233 2.734m49.248-389.67c-.333-.16-.334-.613-.334-.84 7.916 1.938 15.903 3.873 23.724 6.337 6.911 2.177 13.658 4.89 20.426 7.499 1.298.5 2.357 1.62 3.601 2.816-15.645-4.975-31.365-10.313-47.417-15.812M398.055 735.275c9.081 7.023 18.169 14.4 27.263 21.771 1.797 1.456 3.616 2.883 5.588 4.616-.932.043-2.298.128-3.08-.507-9.682-7.867-19.287-15.83-28.878-23.81-.456-.38-.597-1.137-.893-2.07m61.186 46.829c5.007 2.433 10.094 5.18 15.135 8.01 6.514 3.658 12.99 7.38 19.634 11.372-3.456-1.107-7.24-2.179-10.632-3.985-7.237-3.853-14.296-8.044-21.362-12.21-1.085-.639-1.818-1.875-2.775-3.187M642.3 731.971c7.439-7.928 15.247-15.838 23.356-23.893-.071 1.079-.08 2.654-.872 3.47-6.374 6.572-12.87 13.024-19.408 19.433-.628.616-1.791.686-3.075.99m-267.229-18.718c5.058 4.377 10.134 9.093 15.18 13.84a244 244 0 0 1 7.678 7.555c-.817.152-2.131.351-2.679-.204a803 803 0 0 1-20.179-21.19m-75.016-111.969c4.687 8.711 9.35 17.809 14.035 27.277-1.923-2.465-4.24-5.118-5.74-8.173-3.01-6.123-5.573-12.466-8.295-19.104m373.227 98.665c5.451-7.236 11.254-14.482 17.358-21.878-1.922 3.375-3.854 7.13-6.44 10.364-3.242 4.058-7.02 7.688-10.918 11.513m-46.989 46.016c4.756-4.638 9.883-9.253 15.336-13.954-3.063 6.458-8.594 10.673-15.336 13.954m-14.186 11.791c4.15-3.951 8.664-7.818 13.507-11.763-4.161 3.896-8.653 7.872-13.507 11.763m-167.856 14.333c4.882 2.78 9.816 5.91 14.858 9.347a218 218 0 0 1-14.858-9.347m-98.036-92.958c3.295 3.468 6.518 7.3 9.815 11.465-3.247-3.477-6.567-7.289-9.815-11.465M326.03 649.31c2.732 3.683 5.444 7.749 8.184 12.168a178 178 0 0 1-8.183-12.169m12.006 17.987c2.746 3.352 5.471 7.078 8.205 11.154a145 145 0 0 1-8.205-11.154m23.993 31.001c2.634 2.426 5.248 5.222 7.948 8.343a102 102 0 0 1-7.948-8.343m69.023 63.984c2.961 1.738 5.934 3.832 9.018 6.237a84 84 0 0 1-9.018-6.237m173.061 1.479c2.08-2.06 4.522-4.036 7.308-6.024a59 59 0 0 1-7.308 6.023m-248.069-72.476c1.973 1.758 3.921 3.89 5.952 6.345a58 58 0 0 1-5.952-6.345m-16.934-417.164c-3.125 1.062-6.695 2.079-10.687 2.804-.421-.494-.42-.697-.42-.9 2.05-.348 4.1-.698 6.774-1.139.911-.276 1.109-.53 1.217-.853.89.014 1.78.028 3.116.088M666.28 707.948c1.358-2.011 3.067-4.034 5.09-6.13-1.37 1.992-3.053 4.056-5.09 6.13m-348.23-71.673c1.352 1.741 2.68 3.853 4.036 6.324-1.336-1.745-2.697-3.849-4.036-6.324m-4-6.999c1.353 1.74 2.683 3.853 4.038 6.324-1.337-1.745-2.7-3.85-4.038-6.324m275.362-373.389c-.12-.521.135-.95.483-1.61 1.218-.004 2.34.222 3.895.794.934.67 1.438.996 1.942 1.32a216 216 0 0 1-6.32-.504M322.05 643.28c1.327 1.416 2.631 3.206 3.984 5.337-1.304-1.428-2.656-3.196-3.984-5.338m47.972 64.034c1.334 1.071 2.653 2.515 4.03 4.286-1.31-1.086-2.677-2.5-4.03-4.286"/><path fill="#828ed4" d="M596.124 256.547c-.896-.48-1.4-.805-2.014-1.335 1.28-.202 2.67-.199 4.476-.178.415.394.414.771.414 1.431-.828.268-1.657.253-2.876.082m95.148 421.388c.358-1.011 1.076-2.033 2.098-3.117-.377.993-1.057 2.05-2.098 3.117M334.185 662.13c.726.442 1.391 1.233 2.064 2.35-.703-.45-1.414-1.226-2.064-2.35m8.398-389.155c.625.021.89.054 1.554.136-.945.474-2.29.896-3.933 1.276.473-.496 1.246-.949 2.379-1.412m99.484 497.295c.65.06 1.325.467 2.086 1.16-.63-.08-1.345-.447-2.086-1.16M336.216 665.112c.631.176 1.204.7 1.826 1.53-.595-.191-1.24-.687-1.826-1.53m335.836 36.618c-.085-.456.138-.992.634-1.661.073.438-.127 1.01-.634 1.66m21.078-456.462c.383-.083.95.068 1.688.464-.387.086-.946-.072-1.688-.464M440.215 769.106c.432-.084.984.125 1.695.591-.42.072-.997-.113-1.695-.59m257.866-522.876q.32-.199.802.529-.32.194-.802-.529m-25.008-4.996c.211-.137.482.032.805.514q-.316.198-.805-.514m52.033 383.641c-.102-.233.052-.566.475-.972.106.24-.056.557-.475.972m-.871 2.084c-.153.092-.17-.376-.139-.607.182-.08.348.062.473.233.024.032-.117.185-.334.374M327.767 276.152c.236.074.236.277.235.785-.001.306-.42.427-.63.375-.088-.379.036-.705.395-1.16m46.37 436c.202-.064.496.117.872.553-.206.067-.492-.12-.872-.553m-38.365-438.025q.174.342-.599.756-.151-.329.599-.756"/><path fill="#7385f0" d="M519.089 460.056c-.016-.172-.031-.344.338-.827 1.401-1.722 2.274-3.273 3.471-4.51 1.644-1.696 3.477-4.42 5.327-4.502 9.473-.419 19.007-.597 28.461.026 12.36.814 24.701 2.18 36.983 3.816 14.228 1.893 28.444 4.007 42.547 6.652 10.02 1.88 19.94 4.475 29.734 7.332 12.692 3.703 25.248 7.888 37.788 12.087 3.021 1.012 4.531 2.987 3.555 6.943-2.13 8.626-3.024 17.565-5.276 26.153-3.378 12.885-6.351 26.065-11.557 38.238-7.58 17.722-16.793 34.763-25.67 51.909-10.863 20.981-26.531 38.465-42.49 55.517-9.489 10.14-20.218 19.206-30.952 28.075-20.248 16.73-42.994 29.698-66.095 41.991-2.047 1.089-5.766.912-7.837-.241-10.251-5.707-20.186-11.981-30.294-17.953-1.927-1.139-4.127-1.814-6.2-2.704 0 0 .08-.036.028-.36-1.039-.77-2.024-1.216-3.01-1.662 0 0 .06-.032.03-.356-4.364-3.428-8.7-6.533-13.035-9.637 0 0 .066-.034.037-.356-4.37-3.758-8.711-7.193-13.052-10.629 0 0 .081-.041.049-.358-.665-1.262-1.173-2.325-1.947-3.132-9.296-9.683-18.595-19.364-27.996-28.944-1.431-1.458-3.389-2.4-5.103-3.58 0 0 .067-.044.07-.38-3.016-3.77-6.034-7.203-9.053-10.635 0 0 .057-.028.058-.373-2.028-2.765-4.056-5.185-6.085-7.604 0 0 .07-.053.073-.39-3.088-5.393-6.084-10.512-9.296-15.492-3.864-5.99-3.952-6.532 1.026-11.362 2.735-2.654 5.735-5.03 8.543-7.61 12.838-11.795 25.646-23.62 38.474-35.427 3.712-3.416 5.405-3.199 8.382.894 6.118 8.412 12.117 16.918 18.497 25.128 1.931 2.486 4.95 4.127 7.472 6.156 0 0-.07.051-.072.39 1.077 1.36 2.156 2.378 3.236 3.397 0 0-.01.076.006.343.322.43.63.592.936.755 0 0-.113.169-.018.343.402.342.707.51 1.013.677 0 0-.116.117-.02.309.399.363.702.535 1.006.707 0 0-.112.096-.013.295.403.37.707.54 1.01.713 0 0-.107.078-.01.281.4.377.704.549 1.008.721 0 0-.107.076-.01.28.4.378.705.55 1.008.723 0 0-.106.07-.009.276a4.5 4.5 0 0 0 1.01.724s-.108.07-.01.276c.401.379.705.551 1.01.724 0 0-.109.067-.011.274a4.6 4.6 0 0 0 1.01.72s-.114.081-.012.284c.407.373.71.544 1.015.714 0 0-.116.08-.014.284.407.37.712.538 1.017.706 0 0-.127.1-.02.298.414.363.72.53 1.025.696 0 0-.132.103-.023.3.417.358.725.519 1.033.68 0 0-.138.148-.026.33.42.339.73.497 1.04.655 0 0-.059-.066-.013.194.288.506.53.752.832 1.332 10.337 8.615 20.543 16.987 30.982 25.06 1.259.973 4.222 1.112 5.631.305 10.574-6.058 21.234-12.036 31.34-18.824 20.528-13.788 38.155-30.68 51.871-51.389 2.138-3.228 3.481-6.982 5.453-10.708.397-1.094.533-1.973.669-2.852 0 0 .034.056.369.02 3.982-8.044 7.635-16.05 11.207-24.09.037-.084-.988-.64-1.604-1.338-4.48-1.509-8.825-2.902-13.275-3.752-12.468-2.38-24.926-4.912-37.489-6.66-9.49-1.32-19.126-1.921-28.714-2.134-15.572-.345-31.157-.11-46.736-.12-4.178-.002-8.356 0-12.741 0 .275-1.54.237-2.089.464-2.486 8.835-15.469 17.726-30.906 26.506-46.406 1.02-1.8 1.44-3.938 2.138-5.92M369.065 349.419s.444-.213.938.006c2.021-.37 3.548-.958 5.068-1.578-.007-.03-.009-.094-.009-.094.414-.192.828-.384 1.842-.347 2.435-.314 4.27-.856 6.119-1.552.013-.153.034-.46.034-.46s.453-.198.97.034c2.682-.313 4.844-.858 7.437-1.406 2.385-.273 4.372-.406 6.292-.837 7.412-1.665 14.729-3.906 22.215-5.056 19.565-3.004 39.162-5.882 58.821-8.169 15.58-1.812 31.25-3.18 46.917-3.796 12.239-.48 24.535.478 36.805.84 4.44.13 5.395 1.457 3.4 5.611-5.363 11.174-11.01 22.212-16.453 33.348-3.243 6.636-6.314 13.357-9.438 20.332.072.482.12.671.169.86 0 0-.169-.042-.43.047-1.762.666-3.262 1.243-5.224 1.812-4.49.313-8.52.634-12.977.96-2.137.017-3.848.03-6.012.035-3.84.313-7.226.633-11.035.956-2.12.021-3.82.039-5.816.067-.764.33-1.23.648-1.713 1.116-.017.15-.04.452-.04.452-.43.087-.862.175-1.88-.004-1.748-.367-2.908-.467-4.434-.577-1.472.307-2.577.623-4.108.941a939 939 0 0 0-5.828.08c-.772.322-1.247.632-2.18.942-11.374 1.69-22.323 3.199-33.195 5.137-7.452 1.328-14.86 3.025-22.173 4.985-6.135 1.645-12.104 3.909-18.531 5.952-4.944 2.984-1.793 6.884-1.61 10.358.953 18.158 2.449 36.257 6.903 53.966 3.174 12.62 6.304 25.254 9.713 37.811 1.646 6.064 2.686 11.4-3.761 15.71-2.828 1.891-4.569 5.409-6.803 8.188 0 0-.061-.07-.39-.073-1.782 1.309-3.237 2.62-5.035 3.978-7.74 6.835-15.113 13.653-22.546 20.403-3.983 3.617-8.071 7.118-13.211 11.637-3.544-7.527-6.722-14.278-9.9-21.409-2.662-7.827-5.651-15.179-7.91-22.748-3.095-10.377-5.743-20.892-8.38-31.399-2.045-8.142-4.35-16.281-5.533-24.565-2.428-16.981-4.71-34.017-6.062-51.108-1.333-16.83-1.554-33.755-1.937-50.645-.042-1.877 1.594-4.601 3.245-5.542 3.542-2.02 7.659-3 11.432-4.655 2.74-1.203 5.308-2.803 7.952-4.225 0 0 .085.013.515.114 2.214-.406 5.15 1.682 5.466-2.134 0 0 .1.012.533.123 4.196-1.203 7.957-2.519 11.732-3.98z"/><path fill="#828ed4" d="M481.08 708.355c1.915.593 4.115 1.268 6.042 2.407 10.108 5.972 20.043 12.246 30.294 17.953 2.071 1.153 5.79 1.33 7.837.241 23.1-12.293 45.847-25.261 66.095-41.991 10.734-8.869 21.463-17.936 30.953-28.075 15.958-17.052 31.626-34.536 42.49-55.517 8.876-17.146 18.09-34.187 25.669-51.909 5.206-12.173 8.179-25.353 11.557-38.238 2.252-8.588 3.146-17.527 5.276-26.153.976-3.956-.534-5.931-3.555-6.943-12.54-4.2-25.096-8.384-37.788-12.087-9.795-2.857-19.714-5.452-29.734-7.332-14.103-2.645-28.32-4.759-42.547-6.652-12.282-1.635-24.623-3.002-36.983-3.816-9.454-.623-18.988-.445-28.46-.026-1.85.082-3.684 2.806-5.328 4.503-1.197 1.236-2.07 2.787-3.432 4.252 3.12-10.087 4.515-11.135 14.847-11.027 58.255.608 114.916 10.197 169.808 29.953 4.668 1.68 6.155 4.149 5.411 8.955-9.707 62.77-35.82 117.737-78.143 165.061-29.956 33.496-66.134 58.627-105.817 79.11-2.944 1.52-5.401 1.83-8.306.001-11.964-7.53-24.012-14.927-36.187-22.67M540 386.002c3.147-6.682 6.218-13.403 9.46-20.04 5.444-11.135 11.091-22.173 16.455-33.347 1.994-4.154 1.04-5.48-3.401-5.612-12.27-.361-24.566-1.32-36.805-.839-15.667.615-31.337 1.984-46.917 3.796-19.659 2.287-39.256 5.165-58.82 8.17-7.487 1.15-14.804 3.39-22.216 5.055-1.92.43-3.907.564-6.648.83-1.49.01-2.197.025-2.903.04 15.873-3.588 31.632-7.824 47.641-10.634 37.115-6.514 74.568-9.613 112.282-9.009 5.988.097 11.974.417 17.955.739 1.57.084 3.12.561 5.372.99-10.183 20.233-20.042 39.823-30.412 59.64-.689.226-.866.224-1.044.221"/><path fill="#7f8cd3" d="M518.806 460.244c-.415 1.794-.835 3.932-1.855 5.732-8.78 15.5-17.67 30.937-26.506 46.406-.227.397-.189.946-.464 2.486 4.385 0 8.563-.002 12.74 0 15.58.01 31.165-.225 46.737.12 9.588.212 19.224.815 28.714 2.135 12.563 1.747 25.021 4.279 37.489 6.66 4.45.849 8.796 2.242 13.065 3.775-.124.388-.546.383-.546.383-17.185-3.038-34.263-7.363-51.58-8.8-23.666-1.964-47.513-1.768-71.285-2.412-6.287-.17-12.583-.025-19.424-.025 1.54-2.852 3.166-6.003 4.917-9.083 8.556-15.05 17.135-30.087 25.748-45.104.462-.806 1.303-1.396 2.25-2.273M350.394 355.731c-2.255 1.43-4.822 3.03-7.563 4.232-3.773 1.654-7.89 2.636-11.432 4.655-1.65.94-3.287 3.665-3.245 5.542.383 16.89.604 33.815 1.937 50.645 1.353 17.091 3.634 34.127 6.062 51.108 1.184 8.284 3.488 16.423 5.532 24.565 2.638 10.507 5.286 21.022 8.382 31.4 2.258 7.568 5.247 14.92 7.557 22.779-.587.443-.821.475-1.055.507-8.568-20.113-14.456-41.04-18.886-62.405-7.964-38.4-12.522-77.134-11.87-116.435.098-5.951 2.018-9.287 7.704-10.938 5.574-1.618 10.998-3.753 16.877-5.655"/><path fill="#828ed4" d="M712.652 410.005c-.915 5.934-1.386 6.248-6.939 4.656-36.177-10.367-73.013-17.241-110.463-20.882-6.44-.627-12.87-1.386-19.3-2.115-.27-.03-.503-.386-1.31-1.044 4.786-9.389 9.645-18.917 14.846-28.607.343-.16.55.021.541.409-.364 1.631-.541 2.961-1.1 4.105-3.658 7.474-7.398 14.908-11.442 23.02 3.844.566 6.88 1.083 9.933 1.45 10.802 1.295 21.623 2.433 32.41 3.841 6.53.853 13.011 2.083 19.511 3.161 8.752 1.452 17.584 2.547 26.233 4.467 13.168 2.924 26.251 6.267 39.273 9.79 3.274.885 5.406.609 7.278-2.269.176.007.529.018.529.018m-94.618 146.004c-1.71 3.51-3.054 7.265-5.192 10.493-13.716 20.71-31.343 37.601-51.87 51.389-10.107 6.788-20.767 12.766-31.34 18.824-1.41.807-4.373.668-5.632-.306-10.439-8.072-20.645-16.444-30.697-25.071.416-.356.606-.366.796-.375 9.948 7.752 19.83 15.593 29.926 23.148 1.312.982 4.157 1.303 5.57.558 22.454-11.832 43.777-25.51 61.071-44.234 9.623-10.419 17.377-22.563 26.443-34.175.47-.245.925-.251.925-.251M475.001 591.62c-2.438-1.7-5.458-3.34-7.39-5.827-6.379-8.21-12.378-16.716-18.496-25.128-2.977-4.093-4.67-4.31-8.382-.894-12.828 11.806-25.636 23.632-38.474 35.427-2.808 2.58-5.808 4.956-8.543 7.61-4.978 4.83-4.89 5.372-1.026 11.362 3.212 4.98 6.208 10.1 9.277 15.532-4.682-6.273-9.576-12.779-13.794-19.697-.803-1.318.421-4.885 1.823-6.348 4.363-4.552 9.274-8.576 13.948-12.832 12.179-11.094 24.33-22.218 36.523-33.296 5.258-4.777 5.208-4.598 9.308.88 8.269 11.045 16.75 21.931 25.226 33.212m-65.616-55.615c1.907-2.696 3.648-6.214 6.476-8.105 6.447-4.31 5.407-9.646 3.76-15.71-3.408-12.557-6.538-25.19-9.712-37.81-4.454-17.71-5.95-35.81-6.903-53.967-.183-3.474-3.334-7.374 1.607-10.126.381.18.372.644.372.644.81 12.903 1.221 25.846 2.52 38.699 2.333 23.067 8.38 45.367 15.343 67.403 1.249 3.95.564 6.564-2.483 9.134-3.678 3.102-7.113 6.491-10.98 9.838m206.613-206.884c15.578 2.358 31.28 4.099 46.7 7.233 18.678 3.798 37.117 8.774 55.732 13.567-.178.522-.35.772-.838 1.068-17.284-4.023-34.122-8.253-51.074-11.97-9.66-2.117-19.512-3.356-29.265-5.069a538 538 0 0 1-21.256-4.16z"/><path fill="#828ed4" d="M405.374 410.915c-.39.017-.38-.448-.377-.68 6.046-2.222 12.015-4.486 18.15-6.13 7.313-1.961 14.72-3.658 22.173-4.986 10.872-1.938 21.821-3.447 33.494-5.15 1.23-.322 1.705-.631 2.179-.94 1.701-.023 3.403-.045 5.72.004.867.193 1.062.374 1.2.615-27.82 3.671-55.247 9.208-82.539 17.267m-48.696 140.617c.125-.4.359-.432.945-.496 3.531 6.72 6.71 13.471 10.253 20.998 5.14-4.52 9.228-8.02 13.21-11.637 7.434-6.75 14.806-13.568 22.557-20.135.357.401.361.58.365.758l-36.667 34.913a4792 4792 0 0 1-10.663-24.4M717.989 351c.092-.306.263-.556.72-.857 4.222.567 4.692 3.446 4.162 6.657a938 938 0 0 1-4.093 23.084c-1.872 9.803-3.885 19.58-5.982 29.744-.144.377-.497.366-.661-.084-.13-2.273-.35-4.142-.022-5.91 2.785-15.001 5.607-29.997 8.573-44.964.647-3.265.319-5.855-2.697-7.67M417.007 649.371c1.63.853 3.588 1.795 5.019 3.253 9.401 9.58 18.7 19.261 27.996 28.944.774.807 1.282 1.87 1.918 3.168a1354 1354 0 0 1-27.69-26.752c-2.582-2.566-4.783-5.513-7.243-8.613M628.3 528.35c-.12-.409.302-.404.513-.428.739.31 1.764.866 1.727.95-3.572 8.04-7.225 16.046-11.237 24.076 2.335-6.151 5.103-12.298 7.693-18.519.74-1.78.965-3.775 1.305-6.08M452.057 685.364c4.204 3.13 8.545 6.565 12.895 10.354-4.247-3.114-8.503-6.58-12.895-10.354m13.036 10.974c4.177 2.81 8.513 5.914 12.862 9.372-4.226-2.79-8.465-5.933-12.862-9.372m-57.078-57.977c2.944 3.1 5.962 6.533 8.96 10.337-2.977-3.086-5.932-6.545-8.96-10.337M521.988 389.97c4.03-.322 8.06-.643 12.482-.767.162.52-.068.843-.299 1.166-3.748.18-7.496.36-11.708.277-.465-.262-.475-.676-.475-.676"/><path fill="#7f8cd3" d="M369.016 350.007c-3.762 1.315-7.523 2.63-11.708 3.884 2.743-1.311 5.909-2.56 9.764-3.84a71 71 0 0 1 1.944-.044"/><path fill="#828ed4" d="M401.981 630.386a73 73 0 0 1 6.002 7.298c-1.988-2.073-3.96-4.518-6.002-7.298m213.751-301.328c.266.064.266.51-.17.731-3.472.56-6.507.899-9.679 1.107a6 6 0 0 0-.444-.354c1.817-3.896 4.931-2.19 8.357-1.668.784.133.955.142 1.125.151.182-.01.364-.02.811.033m-16.114 12.601c1.183-2.49 2.367-4.981 3.882-7.64.332-.167.536.006.527.393a78 78 0 0 1-4.098 7.524zm-94.682 49.303c3.387-.32 6.774-.64 10.613-.71.452.252.451.74.451.74s-.473.091-.93.053c-.874.033-1.29.105-1.707.177-1.515.2-3.03.4-5.236.337a26 26 0 0 0-3.191-.597"/><path fill="#828ed4" d="M504.514 390.965c1.255.108 2.088.22 3.154.538-3.136.559-6.505.91-10.298 1.18-.424-.083-.402-.385-.09-.555a51 51 0 0 0 1.716-1.107zm30.014-.459c-.126-.46.104-.782.403-1.294 1.569-.767 3.07-1.344 4.918-2.009.117 3.407-2.193 3.77-5.32 3.303M404.3 540.876c-.296-.034-.3-.213-.314-.66a28.3 28.3 0 0 1 4.724-4.18c-1.127 1.582-2.623 3.139-4.41 4.84"/><path fill="#7f8cd3" d="M387.838 344.056c1.073-.016 1.78-.03 2.84-.039-1.807.553-3.97 1.098-6.403 1.4.884-.616 2.04-.988 3.563-1.361m-31.435 9.642c.045 3.836-2.891 1.748-5.099 2.197 1.298-.779 3.018-1.498 5.1-2.197m18.674-5.82c-1.527.589-3.054 1.177-4.83 1.533.864-.617 1.977-1.002 3.703-1.413.784-.058.956-.09 1.127-.12m7.932-1.871c-1.836.543-3.67 1.085-5.76 1.384.865-.616 1.984-.989 3.78-1.37 1.112-.011 1.546-.012 1.98-.014"/><path fill="#828ed4" d="M478.2 595.422c-1.032-.705-2.11-1.724-3.168-3.12 1.055.683 2.088 1.745 3.168 3.12m115.425-241.763c.49-1.19.979-2.381 1.809-3.711.34-.14.588.072.582.444-.664 1.463-1.322 2.553-2.082 3.549zm-3.903 8.106c.405-1.269.917-2.45 1.754-3.783.326-.153.55.036.544.408-.665 1.463-1.324 2.554-1.983 3.644 0 0-.208-.181-.315-.27m7.891-16.108c.523-1.174 1.046-2.348 1.787-3.76.218-.237.426-.053.52.412a13 13 0 0 1-1.998 3.623z"/><path fill="#828ed4" d="M595.649 349.705c.425-1.26.975-2.417 1.745-3.811.22-.238.426-.056.521.409-.567 1.549-1.23 2.633-1.893 3.717 0 0-.248-.211-.373-.315M490.997 392.03c1.16.1 2.32.199 3.737.533-1.1.44-2.46.645-4.029.62-.042-.538.125-.846.292-1.154m-.366-.01c.199.318.032.626-.243 1.065-.624.303-1.14.473-2.065.603-.548-.28-.743-.461-1.185-.655.916-.39 2.021-.706 3.493-1.013m25.797-.979c-.428-.048-.427-.536-.426-.78 1.711-.256 3.422-.269 5.56-.286.426-.004.436.41.439.616-1.714.303-3.43.4-5.573.45m-38.332 315.27c.83.172 1.815.617 2.827 1.422-.874-.142-1.773-.645-2.827-1.422m140.199-150.516c-.261.215-.716.22-.944.231.214-.905.655-1.82 1.354-2.91.123.706-.013 1.585-.41 2.679M513.559 391.349c.22-.199.637-.271 1.272-.336-.214.159-.645.31-1.272.336m78.13-33.613c.087-.624.287-1.155.798-1.798.312-.112.551.09.524.384-.347.762-.666 1.229-.986 1.696 0 0-.223-.19-.336-.282"/><path fill="#828ed4" d="M592.679 355.727c.102-.621.324-1.142.746-1.866.2-.202.407-.015.481.373-.24.856-.554 1.325-.868 1.793zm-223.65-5.867c-.431.151-.849.155-1.578.171.152-.22.616-.455 1.348-.65.266.038.243.332.23.48m13.994-4.007c-.447.155-.88.156-1.639.162.159-.233.642-.47 1.399-.664.274.043.253.35.24.502m197.204-90.724c.286-.134.753-.124 1.573-.094-.228.093-.81.165-1.573.094M493.95 610.703c-.041.27-.231.279-.707.3-.527-.233-.77-.48-1.014-.994.522-.035 1.046.2 1.72.694m109.78-276.936c.108-.617.32-1.149.838-1.787.307-.107.487.062.455.356-.35.758-.668 1.224-.986 1.689 0 0-.204-.173-.307-.258M489.12 606.592c-.255.105-.56-.063-.932-.495.249-.102.565.06.931.495m50.904-220.297c.154-.29.331-.288.776-.278.133.318 0 .63-.37 1.04-.286-.09-.334-.28-.406-.762m-164.952-38.448c-.164.062-.336.093-.768.145-.108-.216.11-.35.575-.31.184.071.186.134.193.165M479.15 596.558c-.267.113-.574-.05-.934-.481.262-.11.578.047.934.481m.985 1.022q-.382.16-.922-.496.382-.157.922.497m.985 1.017c-.253.1-.556-.072-.92-.51q.377-.148.92.51m.99 1.009q-.365.147-.92-.509c.244-.096.553.071.92.51m.996 1.003c-.244.097-.548-.075-.92-.512q.363-.144.92.512m.997 1.004q-.361.143-.919-.514c.24-.094.55.075.92.514m.999 1q-.363.143-.92-.513c.239-.095.549.075.92.513m1 .999q-.363.143-.92-.513.362-.143.92.513m1.005.992c-.247.1-.552-.072-.925-.506.243-.097.556.07.925.506m1.004.998c-.25.1-.553-.07-.925-.504.245-.099.557.067.925.504m2.015 1.981c-.257.108-.563-.059-.932-.49.251-.105.567.055.932.49m1.016.978c-.266.115-.574-.046-.944-.474.259-.111.58.043.944.474m1.013.984c-.267.119-.577-.04-.944-.465.261-.115.581.037.944.465m112.628-277.759c0-.388.138-.667.49-1.084.165-.162.472.061.501.407-.164.613-.414.809-.72.931zm10.038-2.877c-.071.105-.242.096-.668.068-.015-.263.26-.317.668-.068m-116.124 62.121q-.255.45-1.4.946.255-.449 1.4-.946m-18.003 2.008q-.264.446-1.423.93.264-.447 1.423-.93"/><path fill="#7385f0" d="M605.022 332.336c.34-.416.59-.612.89-1.095 3.143-.553 6.178-.892 9.648-1.229 7.522 1.32 14.596 2.693 21.693 3.94 9.753 1.712 19.604 2.95 29.265 5.069 16.952 3.716 33.79 7.946 51.074 11.97 3.413 1.824 3.74 4.414 3.094 7.679-2.966 14.967-5.788 29.963-8.573 44.965-.328 1.767-.108 3.636-.154 5.902-1.708 3.328-3.84 3.604-7.114 2.719-13.022-3.523-26.105-6.866-39.273-9.79-8.649-1.92-17.48-3.015-26.233-4.467-6.5-1.078-12.98-2.308-19.51-3.16-10.788-1.409-21.61-2.547-32.411-3.842-3.054-.367-6.09-.884-9.933-1.45 4.044-8.112 7.784-15.546 11.441-23.02.56-1.144.737-2.474 1.101-4.105.669-1.478 1.328-2.569 1.993-4.032.325-.84.644-1.306.99-2.068.342-.763.657-1.232.999-1.994.685-1.383 1.343-2.473 2.007-3.936.669-1.456 1.332-2.54 2.002-3.997s1.333-2.54 2.005-3.994c1.338-2.782 2.666-5.192 4.004-7.989.327-.852.645-1.318.995-2.076"/></svg>